# xmcd
#
# Track frame offsets:
#	150
#	17567
#	35705
#	58630
#	64082
#	87127
#	104122
#
# Disc length: 1802 seconds
#
# Revision: 1
# Processed by: cddbd v1.5.1PL0 Copyright (c) Steve Scherf et al.
# Submitted via: CDex 1.50Beta5
#
DISCID=5a070807
DTITLE=Catch Up - sanso
DYEAR=2001
DGENRE=Rock
TTITLE0=カタツムリ
TTITLE1=うたかた
TTITLE2=BEACH
TTITLE3=〜Interlude〜
TTITLE4=AFTER
TTITLE5=Slough
TTITLE6=車窓
EXTD=
EXTT0=
EXTT1=
EXTT2=
EXTT3=
EXTT4=
EXTT5=
EXTT6=
PLAYORDER=
